<svg xmlns="http://www.w3.org/2000/svg" width="15" height="15" viewBox="0 0 15 15">
    <path fill="#FFF" fill-rule="evenodd" d="M11.27 6.66c.34.32.37.65.37.98 0 2.33-1.85 4.2-4.13 4.2s-4.14-1.87-4.14-4.2c0-.33.04-.66.13-.98H0v7C0 14.39.57 15 1.25 15h12.5c.68 0 1.25-.61 1.25-1.34v-7h-3.73zM9.93 7.71c0 1.46-1.15 2.65-2.55 2.65S4.84 9.17 4.84 7.71s1.14-2.64 2.54-2.64c1.4 0 2.55 1.18 2.55 2.64zm4.05-4.63c0 .24-.23.44-.52.44h-1.99c-.29 0-.54-.2-.54-.44V1.45c0-.24.25-.42.54-.42h1.99c.29 0 .52.18.52.42v1.63zM13.66 0H1.25C.57 0 0 .61 0 1.29v3.24h4.84c.76-.55 1.57-1.02 2.54-1.02.95 0 1.8.47 2.55 1.02H15V1.29C15 .61 14.39 0 13.66 0z" opacity=".5"/>
</svg>
