<svg xmlns="http://www.w3.org/2000/svg" width="18" height="15" viewBox="0 0 18 15">
    <path fill="#FFF" fill-rule="evenodd" d="M7.324 0c.735 0 1.47.021 2.181.021.184 0 .413 0 .413.235 0 .683-1.17.683-1.676.747.758.49 1.01 1.45 1.01 2.283 0 2.624-2.226 2.966-2.226 3.734 0 .704 2.892 1.75 2.892 4.16 0 2.69-2.686 3.82-5.211 3.82C2.526 15 0 14.125 0 11.757c0-2.518 2.985-3.222 5.189-3.222-.276-.704-.528.043-.528-1.408-2.204 0-3.766-1.195-3.766-3.308C.895 2.091 2.09.832 3.811.32 4.798.021 6.291 0 7.324 0zM5.349 5.697c1.103 0 1.47-.939 1.47-1.814C6.819 2.773 6.107.96 4.66.96c-1.08 0-1.47.96-1.47 1.814 0 1.11.712 2.923 2.158 2.923zm-.32 7.639c1.262 0 3.053-.726 3.053-2.091 0-1.345-1.63-1.92-2.847-1.92-1.332 0-3.054.575-3.054 2.048 0 1.365 1.607 1.963 2.847 1.963zm10.675-9.474v2.134h-1.538V3.862H11.87V2.454h2.296V.32h1.538v2.134H18v1.408h-2.296z" opacity=".5"/>
</svg>
