<svg xmlns="http://www.w3.org/2000/svg" width="18" height="12" viewBox="0 0 18 12">
    <path fill="#FFF" fill-rule="evenodd" d="M14.315 1.876s0-.134 0 0c-.709-.67-1.56-.938-2.41-.804.85-.134 1.276-.402 1.418-.536 0-.134 0-.268-.142-.268-.425 0-.85.134-1.134.268.425-.268.567-.402.567-.536-.425 0-.85.268-1.417.67.142-.268.283-.402.142-.536-.284.134-.426.268-.567.536-.426.402-.709.67-.85 1.072-.568.938-.993 1.742-1.276 2.68h-.142A3.29 3.29 0 0 0 7.228 3.35c-.567-.402-1.275-.67-2.126-1.072-.85-.402-1.7-.804-2.693-1.072 0 .938.426 1.742 1.418 2.278-.284 0-.709 0-.992.134 0 .804.708 1.474 1.984 1.742-.425 0-.85.134-1.276.402.426.804 1.134 1.072 2.268 1.072-.142.134-.425.268-.425.268-.142.134-.284.402-.142.67.284.403.567.537 1.276.537-.992.938-2.268 1.474-3.685 1.34-.85 0-1.843-.402-2.835-1.206.992 1.34 2.41 2.412 4.11 3.082 1.984.536 3.969.67 5.811.134a10.16 10.16 0 0 0 4.82-3.082c.566-.804.991-1.609 1.133-2.413.992 0 1.7-.268 2.126-.804-.283.134-.992.134-1.984-.134.992-.134 1.7-.402 1.842-.938a2.911 2.911 0 0 1-2.126 0c-.141-.938-.567-1.742-1.417-2.412z" opacity=".5"/>
</svg>
